<svg width="113" height="27" viewBox="0 0 113 27" fill="none" xmlns="http://www.w3.org/2000/svg">
<rect width="26.9155" height="26.9155" rx="13.4577" fill="#F0E714"/>
<path d="M14.6404 20.6365C13.6696 20.6365 12.7559 20.6365 11.7852 20.6365C11.7852 17.5814 11.7852 14.5263 11.7852 11.4426C12.6703 11.4426 13.584 11.4426 14.4977 11.4426C14.4977 11.8423 14.4977 12.2421 14.4977 12.6704C14.5262 12.6418 14.5548 12.6418 14.5548 12.6418C15.1544 11.671 16.0395 11.2427 17.153 11.2142C17.7812 11.1856 18.4094 11.2713 18.9804 11.5568C19.7228 11.8994 20.1511 12.5276 20.3795 13.2985C20.5793 13.9267 20.6365 14.5548 20.6365 15.183C20.6365 16.9533 20.6365 18.7235 20.6365 20.4938C20.6365 20.5223 20.6365 20.5509 20.6365 20.5794C19.6942 20.5794 18.752 20.5794 17.7812 20.5794C17.7812 20.5223 17.7812 20.4652 17.7812 20.3796C17.7812 18.8663 17.7812 17.3815 17.7812 15.8683C17.7812 15.5256 17.7526 15.183 17.6955 14.8404C17.5242 13.8981 16.8961 13.584 16.0395 13.6983C15.24 13.7839 14.8117 14.2693 14.669 15.1259C14.6119 15.44 14.6119 15.754 14.6119 16.0681C14.6119 17.4958 14.6119 18.9519 14.6119 20.3796C14.6404 20.4938 14.6404 20.5509 14.6404 20.6365Z" fill="#101C26"/>
<path d="M7.12891 11.4707C8.07114 11.4707 9.01338 11.4707 9.95561 11.4707C9.95561 14.5258 9.95561 17.581 9.95561 20.6361C9.01338 20.6361 8.07114 20.6361 7.12891 20.6361C7.12891 17.581 7.12891 14.5258 7.12891 11.4707Z" fill="#101C26"/>
<path d="M10.1859 8.52966C10.1859 9.44335 9.44352 10.1857 8.55839 10.2143C7.64471 10.2143 6.90234 9.4719 6.90234 8.55821C6.90234 7.64453 7.64471 6.90216 8.55839 6.90216C9.44352 6.87361 10.1859 7.61598 10.1859 8.52966Z" fill="#101C26"/>
<rect x="42.9155" width="26.9155" height="26.9155" rx="13.4577" fill="#F0E714"/>
<path d="M59.0138 6.90137C59.25 6.92723 59.4599 6.92723 59.6961 6.95309C59.8535 6.95309 60.011 6.97896 60.1684 7.00482C60.1684 7.70313 60.1684 8.37557 60.1684 9.09974C60.116 9.09974 60.0372 9.09974 59.9847 9.09974C59.5386 9.09974 59.0926 9.09974 58.6465 9.12561C58.0954 9.15147 57.7805 9.43597 57.7543 9.9791C57.728 10.5481 57.7543 11.1171 57.7543 11.7119C58.5152 11.7119 59.3025 11.7119 60.0897 11.7119C59.9848 12.4878 59.8798 13.2637 59.7748 14.0396C59.0926 14.0396 58.4365 14.0396 57.7543 14.0396C57.7543 16.0311 57.7543 18.0226 57.7543 20.014C56.9408 20.014 56.1273 20.014 55.3138 20.014C55.3138 18.0226 55.3138 16.057 55.3138 14.0396C54.6316 14.0396 53.9493 14.0396 53.267 14.0396C53.267 13.2637 53.267 12.4878 53.267 11.7119C53.9493 11.7119 54.6053 11.7119 55.3138 11.7119C55.3138 11.6343 55.3138 11.6085 55.3138 11.5568C55.3138 10.936 55.3138 10.3412 55.3138 9.72046C55.3401 8.99629 55.5762 8.32385 56.1011 7.75485C56.4947 7.34104 56.9933 7.10827 57.5706 6.97896C57.728 6.95309 57.8855 6.92723 58.0167 6.90137C58.3316 6.90137 58.6727 6.90137 59.0138 6.90137Z" fill="#101C26"/>
<rect x="85.831" width="26.9155" height="26.9155" rx="13.4577" fill="#F0E714"/>
<path d="M92.7333 17.8458C94.254 17.9664 95.6577 17.6044 96.8859 16.6389C95.5992 16.5182 94.7219 15.8544 94.254 14.5872C94.6634 14.6475 95.0728 14.6475 95.5407 14.5268C94.8388 14.3458 94.3125 13.9837 93.9031 13.501C93.4937 12.9579 93.2597 12.3544 93.2597 11.6303C93.6691 11.8113 94.0785 11.9924 94.5464 11.9924C93.9031 11.5096 93.5522 10.9665 93.3767 10.2424C93.2012 9.51827 93.3182 8.79414 93.6691 8.13035C95.1898 10.001 97.1198 11.0269 99.5178 11.2079C99.5178 10.9062 99.4593 10.6648 99.5178 10.3631C99.5763 9.1562 100.454 8.00966 101.565 7.70794C102.618 7.40622 103.553 7.70794 104.314 8.43207C104.372 8.49242 104.431 8.49242 104.489 8.49242C105.074 8.37173 105.6 8.13035 106.185 7.82863C105.951 8.49242 105.542 9.03551 105.016 9.39758C105.016 9.39758 105.016 9.39758 105.016 9.45792C105.249 9.39758 105.542 9.33723 105.776 9.27689C106.01 9.21655 106.302 9.09586 106.536 9.03551C106.185 9.51827 105.834 10.001 105.366 10.3631C105.191 10.4838 105.132 10.6045 105.132 10.8458C105.132 12.1734 104.84 13.3803 104.314 14.5872C103.612 16.0354 102.676 17.2423 101.331 18.0871C100.395 18.6906 99.3423 19.0526 98.2311 19.2337C97.4707 19.3544 96.7104 19.3544 95.9501 19.2337C94.7804 18.8716 93.7276 18.5095 92.7333 17.8458Z" fill="#101C26"/>
</svg>
